<?xml version="1.0" encoding="utf-8"?><svg viewBox="0 0 1302 230" xmlns="http://www.w3.org/2000/svg" xmlns:xlink="http://www.w3.org/1999/xlink"><style>:root>svg{display:none}:root>svg:target{display:block}</style><svg fill="none" viewBox="0 0 174 40" id="button_bg" xmlns="http://www.w3.org/2000/svg"><mask id="aa" fill="#fff"><path fill-rule="evenodd" clip-rule="evenodd" d="M0 11.999v-12h174v13m0 16v11H0v-11"/></mask><path fill-rule="evenodd" clip-rule="evenodd" d="M0 11.999v-12h174v13m0 16v11H0v-11" fill="#000" fill-opacity=".01"/><path d="M0-.001v-3h-3v3h3zm174 0h3v-3h-3v3zm0 40v3h3v-3h-3zm-174 0h-3v3h3v-3zm3-28v-12h-6v12h6zm-3-9h174v-6H0v6zm171-3v13h6v-13h-6zm0 29v11h6v-11h-6zm3 8H0v6h174v-6zm-171 3v-11h-6v11h6z" fill="#CC1E2C" mask="url(#aa)"/></svg><svg fill="none" viewBox="0 0 28 25" id="cart" xmlns="http://www.w3.org/2000/svg"><path fill-rule="evenodd" clip-rule="evenodd" d="M24.393 18.328H9.698l-.49-2.039h15.697l2.096-12.24H6.261l-.468-1.941A2.758 2.758 0 0 0 3.095 0H.779A.774.774 0 0 0 0 .77c0 .424.349.769.779.769h2.316c.566 0 1.053.38 1.184.925l4.188 17.403h15.926c.43 0 .779-.345.779-.77a.774.774 0 0 0-.779-.77zm.765-12.74L23.59 14.75H8.837L6.63 5.588h18.527zM10.904 20.315c-1.305 0-2.368 1.05-2.368 2.341 0 1.29 1.063 2.34 2.368 2.34 1.306 0 2.368-1.05 2.368-2.34 0-1.29-1.062-2.34-2.368-2.34zm0 3.142a.807.807 0 0 1-.81-.8c0-.443.363-.803.81-.803.447 0 .811.36.811.802a.807.807 0 0 1-.81.802zm10.748-3.142c-1.305 0-2.368 1.05-2.368 2.341 0 1.29 1.063 2.34 2.368 2.34 1.306 0 2.368-1.05 2.368-2.34 0-1.29-1.062-2.34-2.368-2.34zm0 3.142a.807.807 0 0 1-.81-.8c0-.443.363-.803.81-.803.447 0 .811.36.811.802a.807.807 0 0 1-.81.802z" fill="#fff"/></svg><svg fill="none" viewBox="0 0 17 16" id="close" xmlns="http://www.w3.org/2000/svg"><path fill-rule="evenodd" clip-rule="evenodd" d="M1.148 0L.006 1.145 6.863 8 .006 14.858l1.142 1.143 6.858-6.857L14.863 16l1.143-1.143-6.858-6.857 6.858-6.857L14.863 0 8.006 6.858 1.148.001z" fill="#25505E"/></svg><svg fill="none" viewBox="0 0 64 64" id="delivery" xmlns="http://www.w3.org/2000/svg"><g clip-path="url(#dclip0)"><path fill-rule="evenodd" clip-rule="evenodd" d="M53.518 27.797l9.454 2.6a1.406 1.406 0 0 1 1.029 1.355v9.425c0 .593-.377 1.113-.939 1.295l-5.43 1.758c-.947 1.646-2.698 2.768-4.723 2.768-1.843 0-3.467-.925-4.46-2.331v.074h-20.5v-.216a5.462 5.462 0 0 1-4.563 2.473 5.464 5.464 0 0 1-4.55-2.45l-5.475-1.474a1.278 1.278 0 0 1-.94-1.232v-4.921h1.82v4.496l3.766 1.014a5.497 5.497 0 0 1-.094-.929c0-3.03 2.456-5.495 5.473-5.495 3.018 0 5.473 2.465 5.473 5.495 0 .49-.085.958-.206 1.411h18.99a5.446 5.446 0 0 1-.207-1.41c0-3.03 2.455-5.496 5.473-5.496s5.473 2.465 5.473 5.495c0 .138-.018.27-.036.404l-.023.18 3.858-1.249v-8.762l-9.396-2.584H38.522v-9.663H16.238V18h30.678c.72 0 1.385.393 1.735 1.026l4.867 8.77zm-6.602-7.97h-6.575v7.836h11.02l-4.3-7.748a.166.166 0 0 0-.145-.087zM19.734 41.503c0 2.023 1.638 3.669 3.652 3.669 2.015 0 3.653-1.646 3.653-3.669 0-2.022-1.639-3.667-3.653-3.667-2.014 0-3.652 1.645-3.652 3.667zm29.523 0c0 2.023 1.638 3.669 3.652 3.669 2.014 0 3.653-1.646 3.653-3.669 0-2.022-1.639-3.667-3.653-3.667-2.014 0-3.652 1.645-3.652 3.667zM0 22.587h21.94v1.828H0v-1.828zm4.853 6.904h23.962v-1.828H4.853v1.828zM0 32.74h16.238v1.827H0v-1.827z" fill="#000"/></g><defs><clipPath id="dclip0"><path fill="#fff" d="M0 0h64v64H0z"/></clipPath></defs></svg><svg fill="none" viewBox="0 0 16 16" id="fb" xmlns="http://www.w3.org/2000/svg"><path fill-rule="evenodd" clip-rule="evenodd" d="M8.992 4.025c0-.374-.009-.83.257-1.035l2.734-.224V.014c-.52-.027-1.136-.007-1.658-.007-.555 0-1.112-.006-1.649.022-1.034.056-1.864.309-2.462.733C5.342 1.905 5 .922 5 5.252H3l.009 2.76h1.973c.052.049.026.407.026.47V16h3.967c.025-1.98 0-4.008 0-5.995 0-.03-.009-1.925.008-1.967 0-.025.009-.02.017-.035 0 0 2.521.022 2.607 0l.043-.006.35-2.746H8.992c-.009-.405 0-.82 0-1.226z" fill="#484848"/></svg><svg fill="none" viewBox="0 0 1302 230" id="frame" xmlns="http://www.w3.org/2000/svg"><path d="M540 228.999H2a1 1 0 0 1-1-1v-226a1 1 0 0 1 1-1h1298c.55 0 1 .447 1 1v226c0 .552-.45 1-1 1H764" stroke="#9B9B9B" stroke-width=".5" stroke-dasharray="1 4"/></svg><svg fill="none" viewBox="0 0 16 16" id="instagram" xmlns="http://www.w3.org/2000/svg"><g clip-path="url(#gclip0)"><path fill-rule="evenodd" clip-rule="evenodd" d="M13.985-.003H2.027C.79-.003.007.742.007 1.963c-.014 4.023-.014 8.038 0 12.056 0 1.201.754 1.963 1.945 1.97 4.026.014 8.059.014 12.085 0 1.207-.007 1.96-.79 1.96-1.998.009-4.007.009-8.005 0-12.011 0-1.221-.776-1.983-2.012-1.983zm-2.88 2.487c.007-.392.234-.586.618-.595a63.387 63.387 0 0 1 1.772 0c.392.009.602.232.61.61.016.598.016 1.185 0 1.774-.008.41-.24.618-.649.627h-.89c-.278 0-.557.009-.835 0-.385-.009-.62-.205-.625-.595a67.397 67.397 0 0 1 0-1.821zm-3.129 2.46a3.038 3.038 0 0 1 3.06 3.036 3.027 3.027 0 0 1-3.023 3.06 3.032 3.032 0 0 1-3.045-3.047c0-1.674 1.341-3.04 3.008-3.049zm6.137 8.346c0 .625-.167.816-.777.816-3.55.005-7.109.005-10.667 0-.566 0-.777-.197-.777-.734a806.64 806.64 0 0 1 0-6.315c0-.074.007-.143.023-.24h1.281c-.355 1.892.098 3.544 1.523 4.85 1.033.935 2.262 1.342 3.641 1.252 2.631-.182 5.111-2.6 4.456-6.111h1.297v6.482z" fill="#484848"/></g><defs><clipPath id="gclip0"><path fill="#fff" d="M0 0h16v16H0z"/></clipPath></defs></svg><svg fill="none" viewBox="0 0 28 28" id="menu" xmlns="http://www.w3.org/2000/svg"><path d="M0 5a1 1 0 0 1 1-1h26a1 1 0 1 1 0 2H1a1 1 0 0 1-1-1zM0 14a1 1 0 0 1 1-1h26a1 1 0 1 1 0 2H1a1 1 0 0 1-1-1zM1 22a1 1 0 1 0 0 2h26a1 1 0 1 0 0-2H1z" fill="#fff"/></svg><svg fill="none" viewBox="0 0 16 81" id="next" xmlns="http://www.w3.org/2000/svg"><path fill-rule="evenodd" clip-rule="evenodd" d="M13.946 40.561L0 1.254 1.808.56l14.192 40-14.192 40L0 79.868l13.946-39.307z" fill="#fff"/></svg><svg fill="none" viewBox="0 0 12 46" id="next-small" xmlns="http://www.w3.org/2000/svg"><path fill-rule="evenodd" clip-rule="evenodd" d="M1.53.999c.617 0 1.199.366 1.428.961l7.951 20.517c.132.338.132.71 0 1.048L2.96 44.042c-.296.768-1.173 1.157-1.97.866-.786-.289-1.186-1.146-.888-1.914L7.85 23.001.1 3.008C-.197 2.24.203 1.383.99 1.094 1.169 1.03 1.35 1 1.53 1z" fill="#BEC3C6"/></svg><svg fill="none" viewBox="0 0 64 64" id="payment" xmlns="http://www.w3.org/2000/svg"><path fill-rule="evenodd" clip-rule="evenodd" d="M46.463 19.975l-.225-.179a2.275 2.275 0 0 0-1.669-.483 2.262 2.262 0 0 0-1.523.83l-2.278 2.816a2.246 2.246 0 0 0 .352 3.17l.223.177a2.263 2.263 0 0 0 1.669.483 2.262 2.262 0 0 0 1.523-.83l2.278-2.814a2.246 2.246 0 0 0-.35-3.17zm-1.067 2.04l-2.278 2.816a.455.455 0 0 1-.64.067l-.223-.177a.449.449 0 0 1-.07-.634l2.278-2.816a.453.453 0 0 1 .639-.068l.224.18a.45.45 0 0 1 .07.633zm6.166.301a1.975 1.975 0 0 0-.307-2.785L38.59 9.438a1.99 1.99 0 0 0-1.467-.425 1.989 1.989 0 0 0-1.34.73L24.5 23.695H12v27.266h37.034v-7.344h2.271v-7.513h-2.27V25.442l2.527-3.126zm-9.27-7.614l-11.37 14.057H28.1l12.477-15.425 1.716 1.367zm-5.092-3.83a.178.178 0 0 1 .252-.028l1.708 1.36L25.77 28.76h-3.038L37.2 10.872zM13.817 25.499h9.223l-2.637 3.26h-6.586V25.5zm33.4 23.66h-33.4V30.562h31.075l2.326-2.874v8.417h-5.514v7.513h5.514v5.54zm2.271-11.25v3.906H43.52v-3.907h5.968zm-5.466-9.15H33.253L43.71 15.831l6.407 5.107c.067.052.081.184.028.249l-6.123 7.572z" fill="#000"/></svg><svg fill="none" viewBox="0 0 16 16" id="pin" xmlns="http://www.w3.org/2000/svg"><path fill-rule="evenodd" clip-rule="evenodd" d="M5.085 5.795A2.919 2.919 0 0 1 8 2.879a2.919 2.919 0 0 1 2.916 2.916A2.919 2.919 0 0 1 8 8.71a2.919 2.919 0 0 1-2.915-2.915zm1.043 0c0 1.032.84 1.871 1.872 1.871s1.872-.84 1.872-1.871c0-1.033-.84-1.872-1.872-1.872s-1.872.84-1.872 1.872z" fill="#B0B0B0"/><path fill-rule="evenodd" clip-rule="evenodd" d="M2.206 5.795C2.206 2.599 4.806 0 8.001 0s5.794 2.6 5.794 5.795c0 3.965-5.185 9.786-5.406 10.032a.522.522 0 0 1-.777 0c-.22-.246-5.406-6.067-5.406-10.032zm1.044 0c0 2.721 3.005 6.811 4.75 8.884 1.746-2.074 4.752-6.163 4.752-8.884A4.756 4.756 0 0 0 8 1.043 4.756 4.756 0 0 0 3.25 5.795z" fill="#B0B0B0"/></svg><svg fill="none" viewBox="0 0 82 82" id="play" xmlns="http://www.w3.org/2000/svg"><path fill-rule="evenodd" clip-rule="evenodd" d="M41 0C18.356 0 0 18.356 0 41c0 22.643 18.356 41 41 41s41-18.357 41-41C82 18.356 63.644 0 41 0zM29.185 60.144V21.855c0-1.343 1.5-2.141 2.614-1.39l27.71 18.665a2.254 2.254 0 0 1 0 3.74L31.8 61.534c-1.114.75-2.614-.048-2.614-1.39z" fill="#fff"/></svg><svg fill="none" viewBox="0 0 17 81" id="prev" xmlns="http://www.w3.org/2000/svg"><path fill-rule="evenodd" clip-rule="evenodd" d="M2.39 40.561L16.336 1.254 14.527.56l-14.191 40 14.191 40 1.809-.693L2.39 40.561z" fill="#fff"/></svg><svg fill="none" viewBox="0 0 12 45" id="prev-small" xmlns="http://www.w3.org/2000/svg"><path fill-rule="evenodd" clip-rule="evenodd" d="M10.47 45c-.617 0-1.199-.366-1.428-.961L1.09 23.522a1.441 1.441 0 0 1 0-1.048L9.042 1.958c.295-.77 1.172-1.158 1.968-.866.787.288 1.187 1.145.889 1.913L4.15 22.998 11.9 42.991c.298.768-.102 1.625-.89 1.914a1.57 1.57 0 0 1-.539.096z" fill="#BEC3C6"/></svg><svg fill="none" viewBox="0 0 20 20" id="profile" xmlns="http://www.w3.org/2000/svg"><path fill-rule="evenodd" clip-rule="evenodd" d="M6.658 1.106C7.78.256 9.11 0 10 0c.89 0 2.22.255 3.342 1.106 1.152.873 2.015 2.322 2.015 4.556 0 1.767-.655 3.032-1.285 3.95-.156.228-.31.434-.45.617l-.09.12c-.104.136-.195.254-.276.366a2.49 2.49 0 0 0-.211.335c-.03.062-.036.091-.037.096 0 .075.015.11.025.127a.37.37 0 0 0 .113.112c.173.124.446.236.917.419l.01.004c.893.347 2.17.844 3.441 2.078 1.053 1.023 1.652 1.953 2 2.793.345.838.426 1.554.48 2.096.066.643-.453 1.225-1.137 1.225H1.143C.459 20-.06 19.418.006 18.775c.054-.542.135-1.258.48-2.096.348-.84.947-1.77 2-2.793 1.27-1.234 2.548-1.731 3.44-2.078l.011-.004c.47-.183.744-.295.917-.42a.37.37 0 0 0 .113-.11.252.252 0 0 0 .025-.128.405.405 0 0 0-.037-.096 2.497 2.497 0 0 0-.211-.335c-.081-.112-.172-.23-.275-.367l-.091-.119c-.14-.183-.294-.39-.45-.616-.63-.919-1.285-2.184-1.285-3.95 0-2.235.863-3.684 2.015-4.557zm.81 1.008c-.806.61-1.51 1.673-1.51 3.548 0 1.43.52 2.448 1.065 3.241a14.202 14.202 0 0 0 .496.675c.105.138.211.277.304.406.117.163.233.338.32.516a1.462 1.462 0 0 1-.02 1.384c-.126.224-.3.394-.484.527-.327.236-.764.406-1.162.56l-.05.02c-.87.338-1.937.755-3.01 1.799-.944.916-1.436 1.705-1.709 2.365-.242.587-.323 1.097-.374 1.566h17.332c-.051-.469-.132-.98-.374-1.566-.273-.66-.765-1.449-1.708-2.365-1.074-1.044-2.14-1.461-3.01-1.8-.017-.006-.034-.012-.051-.02-.398-.153-.835-.323-1.162-.559a1.643 1.643 0 0 1-.484-.527 1.462 1.462 0 0 1-.02-1.384c.087-.178.203-.353.32-.516.093-.13.199-.268.304-.406l.083-.109c.136-.178.275-.365.413-.566.545-.793 1.064-1.812 1.064-3.24 0-1.876-.703-2.939-1.508-3.55-.837-.633-1.857-.834-2.533-.834-.676 0-1.696.201-2.532.835z" fill="#fff"/></svg><svg fill="none" viewBox="0 0 18 21" id="search" xmlns="http://www.w3.org/2000/svg"><path fill-rule="evenodd" clip-rule="evenodd" d="M17.946 6.722a7.577 7.577 0 0 0-2.834-5.088C11.832-.968 7.055-.401 4.466 2.899c-2.42 3.087-2.081 7.484.656 10.169L.166 19.679A.827.827 0 0 0 .819 21a.817.817 0 0 0 .656-.329l4.95-6.603c1.202.754 2.564 1.171 3.979 1.171.3 0 .603-.018.905-.054a7.52 7.52 0 0 0 5.062-2.85 7.599 7.599 0 0 0 1.575-5.613zm-2.863 4.593a5.892 5.892 0 0 1-3.966 2.233 5.879 5.879 0 0 1-4.376-1.241c-2.572-2.039-3.015-5.8-.987-8.387a5.921 5.921 0 0 1 4.67-2.271c1.289 0 2.585.418 3.673 1.28a5.936 5.936 0 0 1 2.22 3.987 5.952 5.952 0 0 1-1.234 4.399z" fill="#fff"/></svg><svg fill="none" viewBox="0 0 64 64" id="sizes" xmlns="http://www.w3.org/2000/svg"><path fill-rule="evenodd" clip-rule="evenodd" d="M39.733 17.905l-6.417-2.548v-1.206a3.514 3.514 0 0 0 2.138-1.409 3.71 3.71 0 0 0 .549-3.12c-.312-1.179-1.214-2.123-2.354-2.464-1.416-.424-2.863.02-3.782 1.157l1.111.936c.546-.674 1.41-.939 2.265-.682.653.195 1.19.759 1.37 1.435.177.67.063 1.334-.32 1.871a2.08 2.08 0 0 1-1.602.878.858.858 0 0 0-.814.86v1.664l-6.62 2.628L10 23.56l3.82 8.289 4.634-1.805V57h28.081V30.044l4.634 1.805 3.82-8.29-15.256-5.654zm-1.271 1.38c-.931 2.597-3.23 4.107-5.967 4.107-2.738 0-5.036-1.51-5.968-4.107l5.968-2.251 5.967 2.25zM20.258 55.153v-2.567h24.445v2.567H20.258zm29.88-25.632l-5.434-2.2V50.74H20.257V27.27l-5.3 2.302-2.453-4.998 12.36-4.663c1.14 3.168 4.285 5.214 7.63 5.214 3.344 0 6.464-2.056 7.603-5.223l12.45 4.696-2.41 4.923z" fill="#000"/></svg><svg fill="none" viewBox="0 0 64 64" id="time" xmlns="http://www.w3.org/2000/svg"><path fill-rule="evenodd" clip-rule="evenodd" d="M12 32c0-11.028 8.971-20 20-20 11.028 0 20 8.972 20 20s-8.972 20-20 20c-11.029 0-20-8.972-20-20zm20.94 13.971v4.102c9.24-.478 16.656-7.893 17.134-17.132h-4.103v-1.88h4.103c-.478-9.24-7.894-16.656-17.134-17.134v4.102h-1.88v-4.102c-9.294.48-16.743 7.98-17.143 17.295h4.112v1.556h-4.112c.399 9.314 7.848 16.814 17.143 17.294v-4.1h1.88zm-5.057-18.567l4.073 3.344 8.053-7.616 1.292 1.366-9.257 8.755-5.353-4.398 1.192-1.451z" fill="#000"/></svg><svg fill="none" viewBox="0 0 16 16" id="vk" xmlns="http://www.w3.org/2000/svg"><path fill-rule="evenodd" clip-rule="evenodd" d="M15.443 6.078c.502-.755.668-1.25.484-1.473-.1-.107-.183-.162-.23-.174a3.842 3.842 0 0 0-.507-.016h-2.4c-.26 0-.419.016-.484.056-.066.035-.148.169-.254.397l-.06.109s-.076.163-.23.479a6.947 6.947 0 0 0-.27.581c-.024.08-.119.256-.272.53a5.192 5.192 0 0 1-.349.57c-.075.097-.188.253-.33.455a1.675 1.675 0 0 1-.406.432c-.13.091-.265.185-.407.288-.13-.054-.23-.18-.306-.38-.084-.2-.12-.45-.12-.737 0-.293.006-.569.019-.835.01-.265.035-.54.058-.83l.043-.553c0-.604-.39-.903-1.17-.903-.023 0-.206-.011-.536-.04A12.043 12.043 0 0 0 6.861 4c-.932 0-1.475.201-1.628.605.672.2.997.69.967 1.473 0 1.236-.023 1.854-.076 1.854-.13.5-.402.564-.815.19-.62-.782-1.25-1.878-1.898-3.293-.155-.3-.361-.44-.62-.414-.101 0-.425-.006-.968-.018a12.416 12.416 0 0 0-1.238.018c-.284.023-.479.083-.585.19.03.35.159.784.39 1.282.619 1.284 1.563 2.81 2.83 4.578.46.507.82.869 1.063 1.095.248.23.578.481.99.759.414.275.874.461 1.376.546.5.087 1.09.12 1.763.1.207-.031.354-.048.443-.06.093-.017.2-.069.33-.172.129-.103.207-.255.237-.454l.076-.98c.077-.281.253-.407.524-.38.272.023.455.128.56.3.178.304.532.686 1.045 1.134.52.455.955.673 1.321.645l2.555-.116c.229 0 .383-.102.448-.315.06-.214.006-.46-.177-.744-.389-.552-1.074-1.27-2.053-2.153-.465-.426-.377-.996.272-1.705.46-.499.949-1.133 1.45-1.887z" fill="#484848"/></svg><svg fill="none" viewBox="0 0 16 16" id="youtube" xmlns="http://www.w3.org/2000/svg"><g clip-path="url(#uclip0)"><path fill-rule="evenodd" clip-rule="evenodd" d="M15.377 2.944c-.578-.67-1.644-.944-3.68-.944H4.303C2.221 2 1.137 2.291.561 3.005c-.56.697-.56 1.722-.56 3.142v2.706C0 11.603.665 13 4.303 13h7.392c1.767 0 2.745-.241 3.378-.833.65-.607.926-1.598.926-3.314V6.147c0-1.497-.043-2.529-.623-3.203zm-5.104 4.93L6.916 9.588a.527.527 0 0 1-.507-.016.501.501 0 0 1-.249-.431V5.724c0-.176.094-.34.249-.43a.526.526 0 0 1 .505-.017l3.357 1.702c.17.087.278.26.278.447 0 .189-.106.36-.276.448z" fill="#484848"/></g><defs><clipPath id="uclip0"><path fill="#fff" d="M0 0h16v16H0z"/></clipPath></defs></svg></svg>