<svg width="174" height="40" viewBox="0 0 174 40" fill="none" xmlns="http://www.w3.org/2000/svg">
<mask id="path-1-inside-1" fill="white">
<path fill-rule="evenodd" clip-rule="evenodd" d="M0 11.9989V-0.000976562H174V12.9985M174 28.9988V39.999H0V28.9988"/>
</mask>
<path fill-rule="evenodd" clip-rule="evenodd" d="M0 11.9989V-0.000976562H174V12.9985M174 28.9988V39.999H0V28.9988" fill="black" fill-opacity="0.01"/>
<path d="M0 -0.000976562V-3.00098H-3V-0.000976562H0ZM174 -0.000976562H177V-3.00098H174V-0.000976562ZM174 39.999V42.999H177V39.999H174ZM0 39.999H-3V42.999H0V39.999ZM3 11.9989V-0.000976562H-3V11.9989H3ZM0 2.99902H174V-3.00098H0V2.99902ZM171 -0.000976562V12.9985H177V-0.000976562H171ZM171 28.9988V39.999H177V28.9988H171ZM174 36.999H0V42.999H174V36.999ZM3 39.999V28.9988H-3V39.999H3Z" fill="#CC1E2C" mask="url(#path-1-inside-1)"/>
</svg>
