<svg width="28" height="25" viewBox="0 0 28 25" fill="none" xmlns="http://www.w3.org/2000/svg">
<path fill-rule="evenodd" clip-rule="evenodd" d="M24.3931 18.3278H9.69797L9.20715 16.2893H24.905L27.0012 4.04961H6.26085L5.79337 2.10778C5.49434 0.866572 4.38541 0 3.09451 0H0.778809C0.348963 0 0.000244141 0.344484 0.000244141 0.769664C0.000244141 1.19437 0.348963 1.53882 0.778809 1.53882H3.09451C3.66066 1.53882 4.14817 1.9192 4.27899 2.46369L8.4674 19.8669H24.3931C24.8229 19.8669 25.1715 19.5222 25.1715 19.0973C25.1715 18.6726 24.8229 18.3278 24.3931 18.3278ZM25.1584 5.58844L23.5893 14.7503H8.83682L6.63121 5.58844H25.1584ZM10.9043 20.3154C9.59865 20.3154 8.53628 21.3655 8.53628 22.6561C8.53628 23.9464 9.59865 24.9963 10.9043 24.9963C12.2098 24.9963 13.2721 23.9464 13.2721 22.6561C13.2721 21.3655 12.2098 20.3154 10.9043 20.3154ZM10.9043 23.4575C10.4572 23.4575 10.0933 23.098 10.0933 22.6561C10.0933 22.2142 10.4572 21.8544 10.9043 21.8544C11.3512 21.8544 11.7151 22.2142 11.7151 22.6561C11.7151 23.098 11.3512 23.4575 10.9043 23.4575ZM21.6521 20.3154C20.3466 20.3154 19.2841 21.3655 19.2841 22.6561C19.2841 23.9464 20.3466 24.9963 21.6521 24.9963C22.9577 24.9963 24.02 23.9464 24.02 22.6561C24.02 21.3655 22.9577 20.3154 21.6521 20.3154ZM21.6521 23.4575C21.2051 23.4575 20.8412 23.098 20.8412 22.6561C20.8412 22.2142 21.2051 21.8544 21.6521 21.8544C22.0992 21.8544 22.4631 22.2142 22.4631 22.6561C22.4631 23.098 22.0992 23.4575 21.6521 23.4575Z" fill="white"/>
</svg>
