<svg width="64" height="64" viewBox="0 0 64 64" fill="none" xmlns="http://www.w3.org/2000/svg">
<g clip-path="url(#clip0)">
<path fill-rule="evenodd" clip-rule="evenodd" d="M53.5182 27.7966L62.9721 30.3977C63.5776 30.5641 64.0005 31.1212 64.0005 31.7518V41.1772C64.0005 41.7697 63.6237 42.2898 63.0622 42.4719L57.6316 44.23C56.6852 45.8756 54.9338 46.9984 52.9092 46.9984C51.0665 46.9984 49.4416 46.0726 48.4493 44.6668V44.7409H27.9492V44.5249C26.9689 46.0123 25.292 46.9984 23.3864 46.9984C21.49 46.9984 19.8183 46.0232 18.8358 44.5477L13.3614 43.0738C12.807 42.9227 12.4206 42.4169 12.4206 41.8422V36.9208H14.2404V41.4175L18.007 42.4315C17.9552 42.1277 17.9135 41.8205 17.9135 41.5021C17.9135 38.4722 20.3687 36.0071 23.3864 36.0071C26.4041 36.0071 28.8591 38.4722 28.8591 41.5021C28.8591 41.9926 28.7742 42.4603 28.6534 42.9131H47.6421C47.5213 42.4603 47.4363 41.9926 47.4363 41.5021C47.4363 38.4722 49.8913 36.0071 52.9092 36.0071C55.9269 36.0071 58.382 38.4722 58.382 41.5021C58.382 41.6399 58.364 41.7728 58.3459 41.9059L58.3459 41.906L58.3459 41.9061C58.3378 41.9657 58.3297 42.0253 58.3232 42.0854L62.1806 40.8371V32.0755L52.7847 29.4909H38.5216V19.8277H16.2381V18H46.9161C47.6366 18 48.3013 18.3927 48.6507 19.0257L53.5182 27.7966ZM46.9161 19.8277H40.3414V27.6631H51.3601L47.0608 19.9146C47.0313 19.8609 46.9755 19.8277 46.9161 19.8277ZM19.7335 41.5021C19.7335 43.5248 21.3721 45.1706 23.3864 45.1706C25.4005 45.1706 27.0392 43.5248 27.0392 41.5021C27.0392 39.4805 25.4005 37.8347 23.3864 37.8347C21.3721 37.8347 19.7335 39.4805 19.7335 41.5021ZM49.2565 41.5021C49.2565 43.5248 50.8948 45.1706 52.9092 45.1706C54.9235 45.1706 56.5619 43.5248 56.5619 41.5021C56.5619 39.4805 54.9235 37.8347 52.9092 37.8347C50.8948 37.8347 49.2565 39.4805 49.2565 41.5021ZM0 22.587H21.9396V24.4148H0V22.587ZM4.85309 29.4909H28.8154V27.6631H4.85309V29.4909ZM0 32.7407H16.2381V34.5682H0V32.7407Z" fill="black"/>
</g>
<defs>
<clipPath id="clip0">
<rect width="64" height="64" fill="white"/>
</clipPath>
</defs>
</svg>
