<svg width="16" height="16" viewBox="0 0 16 16" fill="none" xmlns="http://www.w3.org/2000/svg">
<path fill-rule="evenodd" clip-rule="evenodd" d="M8.99196 4.02467C8.99196 3.65128 8.98344 3.19533 9.24874 2.99022L11.9829 2.76602V0.0138163C11.4631 -0.0128453 10.8465 0.00728691 10.3253 0.00728691C9.76991 0.00728691 9.21302 0.00101035 8.67626 0.0289739C7.64154 0.0851537 6.81156 0.337564 6.21351 0.761643C5.34164 1.90453 5.00036 0.921282 5.00036 5.25144H3L3.00853 8.0128H4.98243C5.03372 8.06087 5.008 8.41884 5.008 8.48128V16H8.97477C8.99961 14.0199 8.97477 11.9915 8.97477 10.0051C8.97477 9.97588 8.96624 8.08046 8.98344 8.03814C8.98344 8.0128 8.99196 8.0175 8.99961 8.00259C8.99961 8.00259 11.5213 8.02508 11.6068 8.00259L11.6502 7.99737L12 5.25144H8.99196C8.98344 4.84644 8.99196 4.43124 8.99196 4.02467Z" fill="#484848"/>
</svg>
