<svg width="16" height="16" viewBox="0 0 16 16" fill="none" xmlns="http://www.w3.org/2000/svg">
<g clip-path="url(#clip0)">
<path fill-rule="evenodd" clip-rule="evenodd" d="M13.9845 -0.00311279H2.02683C0.791242 -0.00311279 0.00648167 0.742074 0.00648167 1.96325C-0.00720613 5.98596 -0.00720613 10.0007 0.00648167 14.0195C0.00648167 15.2205 0.761248 15.9816 1.95236 15.9898C5.97779 16.0033 10.0108 16.0033 14.0366 15.9898C15.244 15.9816 15.9966 15.1983 15.9966 13.9908C16.0055 9.98427 16.0055 5.98596 15.9966 1.97972C15.9966 0.758542 15.2208 -0.00311279 13.9845 -0.00311279ZM11.1056 2.48404C11.1118 2.09223 11.3388 1.8977 11.7234 1.88948C12.3103 1.88123 12.9056 1.88123 13.4947 1.88948C13.8866 1.8977 14.0973 2.1206 14.1049 2.49869C14.1206 3.09723 14.1206 3.68449 14.1049 4.27296C14.0973 4.68276 13.8641 4.89102 13.4563 4.90018H12.5668C12.2877 4.90018 12.0094 4.9087 11.7309 4.90018C11.3459 4.89102 11.1118 4.69497 11.1056 4.30498C11.0974 3.70095 11.0974 3.09723 11.1056 2.48404ZM7.97636 4.94408C9.65729 4.93219 11.0282 6.28203 11.0366 7.97979C11.0523 9.66655 9.70159 11.0332 8.01259 11.0402C6.31794 11.0402 4.97562 9.69156 4.96802 7.9926C4.96802 6.31862 6.30896 4.95232 7.97636 4.94408ZM14.1126 13.2898C14.1126 13.9152 13.9461 14.1058 13.336 14.1058C9.78519 14.111 6.22749 14.111 2.6686 14.1058C2.1028 14.1058 1.89208 13.9091 1.89208 13.3719C1.88384 11.2658 1.88384 9.16285 1.89208 7.05683C1.89208 6.98303 1.89891 6.91442 1.9146 6.81624H3.19616C2.84094 8.70943 3.29392 10.3608 4.71906 11.6671C5.75214 12.6023 6.98072 13.0093 8.36004 12.9188C10.9912 12.7367 13.4714 10.3182 12.8161 6.8077H14.1126V13.2898Z" fill="#484848"/>
</g>
<defs>
<clipPath id="clip0">
<rect width="16" height="16" fill="white"/>
</clipPath>
</defs>
</svg>
