<svg width="28" height="28" viewBox="0 0 28 28" fill="none" xmlns="http://www.w3.org/2000/svg">
<path d="M0 5C0 4.44772 0.447715 4 1 4H27C27.5523 4 28 4.44772 28 5C28 5.55228 27.5523 6 27 6H1C0.447715 6 0 5.55228 0 5Z" fill="white"/>
<path d="M0 14C0 13.4477 0.447715 13 1 13H27C27.5523 13 28 13.4477 28 14C28 14.5523 27.5523 15 27 15H1C0.447715 15 0 14.5523 0 14Z" fill="white"/>
<path d="M1 22C0.447715 22 0 22.4477 0 23C0 23.5523 0.447715 24 1 24H27C27.5523 24 28 23.5523 28 23C28 22.4477 27.5523 22 27 22H1Z" fill="white"/>
</svg>
