<svg width="64" height="64" viewBox="0 0 64 64" fill="none" xmlns="http://www.w3.org/2000/svg">
<path fill-rule="evenodd" clip-rule="evenodd" d="M46.463 19.9749L46.2382 19.7964C45.7651 19.419 45.1667 19.2475 44.5694 19.3127C43.9663 19.3785 43.4257 19.6732 43.0461 20.1422L40.7683 22.9586C39.9852 23.9271 40.1413 25.3489 41.1195 26.1284L41.343 26.3058C41.7499 26.6303 42.2455 26.8029 42.7599 26.8029C42.8439 26.8029 42.9279 26.7981 43.0118 26.7892C43.615 26.7234 44.1554 26.4287 44.5351 25.9599L46.8131 23.1447V23.1442C47.596 22.1743 47.44 20.7525 46.463 19.9749ZM45.3961 22.0159L43.1183 24.8314C43.0165 24.9571 42.8841 24.9889 42.8143 24.9967C42.7421 25.0042 42.6085 25.0024 42.4785 24.8984L42.2549 24.7212C42.0597 24.5653 42.0277 24.2812 42.1851 24.0873L44.4631 21.271C44.5647 21.145 44.6973 21.1132 44.767 21.1055C44.7812 21.1037 44.7976 21.1029 44.8167 21.1029C44.8911 21.1029 44.9988 21.1208 45.1017 21.2031L45.3264 21.3823C45.5216 21.5375 45.5522 21.8214 45.3961 22.0159ZM51.5616 22.3163C52.2499 21.4648 52.1127 20.2151 51.2553 19.531L38.5896 9.43764C38.1733 9.10644 37.6459 8.95236 37.1232 9.01293C36.5933 9.07053 36.1167 9.3295 35.7831 9.74211L24.4986 23.6956H12V50.9624H49.0342V43.6182H51.305V36.1047H49.0342V25.4415L51.5616 22.3163ZM42.2928 14.7015L30.9227 28.7592H28.1L40.5766 13.3341L42.2928 14.7015ZM37.2 10.8716C37.2627 10.7922 37.3751 10.7822 37.4519 10.8439L39.1596 12.2049L25.7695 28.7592H22.7319L37.2 10.8716ZM13.8166 25.4986H23.0401L20.4032 28.7592H13.8166V25.4986ZM47.2176 49.1589H13.8166V30.5624H44.8923L47.2176 27.6876V36.1047H41.7037V43.6182H47.2176V49.1589ZM49.4884 37.9082V41.815H43.5204V37.9082H49.4884ZM44.0219 28.7592H33.253L43.7098 15.8309L50.1175 20.9377C50.1838 20.9898 50.198 21.1219 50.1447 21.1869L44.0219 28.7592Z" fill="black"/>
</svg>
