<svg width="16" height="16" viewBox="0 0 16 16" fill="none" xmlns="http://www.w3.org/2000/svg">
<path fill-rule="evenodd" clip-rule="evenodd" d="M5.08496 5.79456C5.08496 4.18699 6.39277 2.87915 8.00034 2.87915C9.60787 2.87915 10.9157 4.18699 10.9157 5.79456C10.9157 7.40212 9.60787 8.70996 8.00034 8.70996C6.3928 8.70996 5.08496 7.40212 5.08496 5.79456ZM6.12846 5.79456C6.12846 6.82674 6.96815 7.66646 8.00034 7.66646C9.03249 7.66646 9.87221 6.82674 9.87221 5.79456C9.87221 4.76237 9.03249 3.92265 8.00034 3.92265C6.96818 3.92265 6.12846 4.76237 6.12846 5.79456Z" fill="#B0B0B0"/>
<path fill-rule="evenodd" clip-rule="evenodd" d="M2.20605 5.79456C2.20605 2.59944 4.80549 0 8.00065 0C11.1958 0 13.7952 2.59944 13.7952 5.79456C13.7952 9.75981 8.60965 15.581 8.38887 15.8269C8.18187 16.0575 7.81981 16.0579 7.61243 15.8269C7.39165 15.581 2.20605 9.75981 2.20605 5.79456ZM3.24955 5.79462C3.24955 8.516 6.25543 12.606 8.00065 14.679C9.74631 12.6053 12.7517 8.51609 12.7517 5.79459C12.7517 3.17481 10.6204 1.0435 8.00065 1.0435C5.38087 1.0435 3.24955 3.17481 3.24955 5.79462Z" fill="#B0B0B0"/>
</svg>
