<svg width="20" height="20" viewBox="0 0 20 20" fill="none" xmlns="http://www.w3.org/2000/svg">
<path fill-rule="evenodd" clip-rule="evenodd" d="M6.65822 1.10552C7.78027 0.255137 9.10915 0 10 0C10.8909 0 12.2197 0.255137 13.3418 1.10552C14.4944 1.97906 15.3573 3.42787 15.3573 5.6621C15.3573 7.42941 14.7023 8.69396 14.072 9.61259C13.9161 9.83972 13.7618 10.0458 13.6223 10.2292C13.5909 10.2705 13.5606 10.3102 13.5314 10.3485C13.4275 10.4845 13.3371 10.603 13.2564 10.7154C13.1531 10.8592 13.0856 10.9663 13.0447 11.0498C13.0143 11.1118 13.0086 11.141 13.0076 11.1458C13.0082 11.2209 13.0233 11.2554 13.0333 11.2733C13.0454 11.2949 13.0729 11.332 13.1459 11.3847C13.3188 11.5095 13.5924 11.621 14.0626 11.8037L14.0736 11.808C14.9661 12.1549 16.2439 12.6515 17.5143 13.8859C18.5671 14.9087 19.1664 15.8394 19.5132 16.6791C19.8594 17.5173 19.9397 18.2329 19.9945 18.7752C20.0595 19.4184 19.5413 20 18.857 20H1.14301C0.458665 20 -0.0595044 19.4184 0.00551049 18.7752C0.0603256 18.2329 0.140578 17.5173 0.486827 16.6791C0.833649 15.8394 1.43294 14.9087 2.48566 13.8859C3.75605 12.6515 5.03385 12.1549 5.92641 11.808L5.93738 11.8037C6.40756 11.621 6.68118 11.5095 6.8541 11.3847C6.92709 11.332 6.95459 11.2949 6.96668 11.2733C6.9767 11.2554 6.9918 11.2209 6.99236 11.1458C6.99144 11.141 6.98566 11.1118 6.95532 11.0498C6.91437 10.9663 6.84686 10.8592 6.74357 10.7154C6.66291 10.603 6.57244 10.4845 6.46862 10.3485C6.4394 10.3102 6.40911 10.2705 6.37769 10.2292C6.23825 10.0458 6.08385 9.83972 5.92802 9.61259C5.29773 8.69396 4.64266 7.42941 4.64266 5.6621C4.64266 3.42787 5.50564 1.97906 6.65822 1.10552ZM7.4675 2.11365C6.662 2.72414 5.9585 3.78674 5.9585 5.6621C5.9585 7.09114 6.47829 8.10969 7.02286 8.90339C7.16074 9.10434 7.30006 9.29066 7.43597 9.46937C7.46341 9.50546 7.49108 9.54171 7.51874 9.57794C7.62444 9.71641 7.73006 9.85476 7.82273 9.98382C7.93972 10.1468 8.05579 10.3215 8.14334 10.5002C8.23033 10.6777 8.30821 10.8966 8.30821 11.1416C8.30821 11.406 8.25026 11.6559 8.1228 11.8838C7.99721 12.1084 7.82278 12.2782 7.63877 12.411C7.3118 12.647 6.87493 12.8166 6.4773 12.9709C6.46015 12.9776 6.44307 12.9842 6.42607 12.9908C5.55683 13.3286 4.49019 13.7463 3.41609 14.7899C2.47312 15.7062 1.98073 16.495 1.70798 17.1553C1.46573 17.7418 1.3854 18.252 1.33378 18.7215H18.6662C18.6146 18.252 18.5343 17.7418 18.292 17.1553C18.0193 16.495 17.5269 15.7062 16.5839 14.7899C15.5098 13.7463 14.4432 13.3286 13.5739 12.9908C13.5569 12.9842 13.5399 12.9776 13.5227 12.9709C13.1251 12.8166 12.6882 12.647 12.3612 12.411C12.1772 12.2782 12.0028 12.1084 11.8772 11.8838C11.7497 11.6559 11.6918 11.406 11.6918 11.1416C11.6918 10.8966 11.7697 10.6777 11.8567 10.5002C11.9442 10.3215 12.0603 10.1468 12.1773 9.98382C12.2699 9.85476 12.3756 9.7164 12.4813 9.57793C12.5089 9.5417 12.5366 9.50546 12.564 9.46937C12.6999 9.29066 12.8393 9.10434 12.9771 8.90339C13.5217 8.10969 14.0415 7.09114 14.0415 5.6621C14.0415 3.78674 13.338 2.72414 12.5325 2.11365C11.6964 1.48002 10.6756 1.27854 10 1.27854C9.32438 1.27854 8.30355 1.48002 7.4675 2.11365Z" fill="white"/>
</svg>
