<svg width="18" height="21" viewBox="0 0 18 21" fill="none" xmlns="http://www.w3.org/2000/svg">
<path fill-rule="evenodd" clip-rule="evenodd" d="M17.9464 6.72209C17.7092 4.7011 16.7022 2.89402 15.1121 1.63368C11.8315 -0.968373 7.05475 -0.400764 4.46615 2.89907C2.04654 5.98568 2.38464 10.3833 5.12196 13.0677L0.165642 19.6792C-0.107708 20.0429 -0.0350705 20.5599 0.326952 20.8341C0.474298 20.9455 0.647303 21 0.819273 21C1.068 21 1.31364 20.8867 1.47495 20.6713L6.4253 14.0678C7.62656 14.822 8.98881 15.239 10.4036 15.239C10.7037 15.239 11.0071 15.2215 11.3092 15.1855C13.3201 14.9461 15.1184 13.9343 16.3711 12.3359C17.6249 10.7372 18.1844 8.74383 17.9464 6.72209ZM15.0832 11.3147C14.1008 12.5676 12.6922 13.3604 11.1169 13.5477C9.53862 13.7348 7.98701 13.2944 6.74072 12.3068C4.16919 10.2685 3.72613 6.50649 5.75392 3.92026C6.92447 2.42798 8.66617 1.64859 10.4249 1.64859C11.7129 1.64859 13.0093 2.06684 14.0966 2.9286C15.3428 3.91593 16.1319 5.33211 16.3177 6.91612C16.5046 8.49989 16.0657 10.0623 15.0832 11.3147Z" fill="white"/>
</svg>
