<svg width="64" height="64" viewBox="0 0 64 64" fill="none" xmlns="http://www.w3.org/2000/svg">
<path fill-rule="evenodd" clip-rule="evenodd" d="M39.7326 17.9055L39.7327 17.9051L33.3158 15.3573V14.1506C34.1703 13.9713 34.9295 13.4759 35.4544 12.7424C36.092 11.8504 36.2923 10.7132 36.003 9.62144C35.6912 8.44305 34.789 7.49892 33.6488 7.15821C32.2332 6.73361 30.786 7.17842 29.8673 8.31497L30.9782 9.25062C31.5243 8.57705 32.388 8.31246 33.2433 8.56858C33.896 8.76419 34.4338 9.32786 34.6133 10.0044C34.7899 10.6738 34.6764 11.3378 34.2921 11.875C33.9137 12.4039 33.3311 12.7233 32.6914 12.7534C32.2344 12.7759 31.8769 13.1541 31.8769 13.6136V15.2766L25.2562 17.9051L25.2564 17.9055L10.0004 23.5598L13.8205 31.849L18.4538 30.0437V57H46.5352V30.0437L51.1686 31.849L54.9887 23.5598L39.7326 17.9055ZM38.462 19.2846C37.5308 21.8821 35.2324 23.3922 32.4946 23.3922C29.7565 23.3922 27.4586 21.8821 26.5272 19.2846L32.4946 17.0338L38.462 19.2846ZM20.2581 55.1529V52.5864H44.7035V55.1529H20.2581ZM50.1372 29.5214L44.7035 27.3212V50.7389H20.2581V27.2704L14.9587 29.5724L12.5052 24.5736L24.8653 19.9115C26.0045 23.0787 29.15 25.1249 32.4946 25.1249C35.8387 25.1249 38.9593 23.069 40.0981 19.9021L52.548 24.598L50.1372 29.5214Z" fill="black"/>
</svg>
