<svg width="64" height="64" viewBox="0 0 64 64" fill="none" xmlns="http://www.w3.org/2000/svg">
<path fill-rule="evenodd" clip-rule="evenodd" d="M11.9993 32.0005C11.9993 20.9721 20.9714 12 31.9998 12C43.028 12 52.0002 20.9721 52.0002 32.0005C52.0002 43.0279 43.028 52 31.9998 52C20.9714 52 11.9993 43.0279 11.9993 32.0005ZM32.9398 45.9711V50.0725C42.1801 49.5951 49.5964 42.1797 50.0742 32.9407H45.9714V31.0605H50.0742C49.5964 21.8215 42.1801 14.4049 32.9398 13.9273V18.0286H31.0597V13.9273C21.7657 14.4077 14.3166 21.9078 13.9173 31.2217H18.0291V32.7776H13.9173C14.3155 42.0924 21.765 49.5921 31.0597 50.0725V45.9711H32.9398ZM27.8827 27.4039L31.9557 30.7483L40.0087 23.1316L41.301 24.4978L32.0438 33.2526L26.6906 28.855L27.8827 27.4039Z" fill="black"/>
</svg>
