<svg width="16" height="16" viewBox="0 0 16 16" fill="none" xmlns="http://www.w3.org/2000/svg">
<path fill-rule="evenodd" clip-rule="evenodd" d="M15.443 6.07782C15.9451 5.32284 16.111 4.82873 15.9274 4.60514C15.8273 4.49846 15.7443 4.44333 15.6973 4.43134C15.6442 4.41908 15.474 4.41475 15.1897 4.41475H12.7893C12.5297 4.41475 12.3713 4.43134 12.306 4.4714C12.24 4.50585 12.1576 4.6396 12.0518 4.86828L11.9927 4.97701C11.9927 4.97701 11.9162 5.14011 11.7626 5.45556C11.6094 5.76694 11.5148 5.96143 11.4911 6.03748C11.4676 6.11686 11.3735 6.29272 11.2204 6.56734C11.0661 6.8486 10.949 7.03313 10.8713 7.13701C10.7958 7.23425 10.6834 7.39045 10.5415 7.59157C10.4001 7.7932 10.2647 7.93612 10.1346 8.02393C10.0046 8.11504 9.86971 8.20872 9.72776 8.31157C9.59728 8.25797 9.49772 8.13239 9.42155 7.93179C9.33814 7.73143 9.30217 7.48259 9.30217 7.1952C9.30217 6.90169 9.30808 6.62604 9.32089 6.35958C9.33174 6.09517 9.35638 5.81952 9.37942 5.53085C9.40246 5.23836 9.41465 5.05843 9.42155 4.97701C9.42155 4.37315 9.03195 4.07427 8.25247 4.07427C8.22894 4.07427 8.04634 4.06279 7.71612 4.03471C7.37874 4.01021 7.09028 4 6.86061 4C5.92922 4 5.38644 4.20112 5.23329 4.60514C5.90457 4.80447 6.22999 5.29452 6.20016 6.07782C6.20016 7.31414 6.17652 7.93179 6.12402 7.93179C5.99341 8.43178 5.72197 8.49635 5.3093 8.12193C4.6894 7.33966 4.05927 6.24447 3.41053 4.82873C3.25639 4.5296 3.04962 4.38973 2.79062 4.41475C2.68996 4.41475 2.36551 4.40862 1.82275 4.39713C1.28035 4.38565 0.8677 4.38973 0.584532 4.41475C0.300765 4.43771 0.105972 4.49846 0 4.60514C0.0299427 4.95506 0.158939 5.3887 0.389604 5.88741C1.00854 7.17121 1.95275 8.69696 3.22052 10.4647C3.68086 10.9716 4.04054 11.334 4.28255 11.5596C4.53095 11.7896 4.86066 12.0415 5.27283 12.3187C5.68722 12.594 6.14706 12.7801 6.64868 12.8648C7.1498 12.9524 7.73964 12.9851 8.41191 12.9641C8.61868 12.9338 8.76591 12.9172 8.85464 12.9057C8.9484 12.8878 9.05437 12.8365 9.18449 12.7334C9.31399 12.6298 9.39163 12.4784 9.42155 12.2786L9.49772 11.2995C9.57472 11.0175 9.75141 10.8922 10.0222 10.9192C10.2936 10.9419 10.4767 11.0468 10.5828 11.2191C10.7599 11.5234 11.1138 11.9047 11.6272 12.3531C12.1464 12.8077 12.5821 13.0259 12.9483 12.9976L15.5028 12.8824C15.732 12.8824 15.8862 12.7801 15.9515 12.567C16.0104 12.3531 15.9574 12.1063 15.7743 11.823C15.3852 11.2712 14.7004 10.5527 13.7207 9.66963C13.2556 9.24442 13.3435 8.67373 13.9933 7.96522C14.4526 7.46626 14.9419 6.83176 15.443 6.07782Z" fill="#484848"/>
</svg>
