<svg width="16" height="16" viewBox="0 0 16 16" fill="none" xmlns="http://www.w3.org/2000/svg">
<g clip-path="url(#clip0)">
<path fill-rule="evenodd" clip-rule="evenodd" d="M15.3767 2.9441C14.7993 2.27369 13.733 2 11.6964 2H4.30406C2.22114 2 1.13664 2.29111 0.561281 3.00523C0.000366211 3.70155 0.000366211 4.72747 0.000366211 6.14739V8.85319C0.000366211 11.6037 0.665964 13 4.30406 13H11.6964C13.4626 13 14.4411 12.7586 15.0742 12.1669C15.7234 11.5598 16.0003 10.5691 16.0003 8.85319V6.14739C16.0003 4.6499 15.957 3.61799 15.3767 2.9441ZM10.2726 7.87369L6.91575 9.58762C6.84058 9.62593 6.75839 9.64507 6.6765 9.64507C6.58382 9.64507 6.49105 9.62051 6.40916 9.57196C6.25463 9.48066 6.16035 9.31721 6.16035 9.14082V5.72399C6.16035 5.54798 6.25445 5.38453 6.40865 5.29323C6.56288 5.20155 6.75441 5.19536 6.91442 5.27659L10.2713 6.9795C10.4419 7.06597 10.5493 7.2381 10.5495 7.42631C10.5498 7.61451 10.4429 7.78666 10.2726 7.87369Z" fill="#484848"/>
</g>
<defs>
<clipPath id="clip0">
<rect width="16" height="16" fill="white"/>
</clipPath>
</defs>
</svg>
